<svg xmlns="http://www.w3.org/2000/svg" width="39" height="32" viewBox="0 0 39 32" fill="none">
<g clip-path="url(#clip0_148_3920)">
<path d="M15.2291 30.1453L20.8246 1.28466C20.9868 0.451791 21.6693 -0.114014 22.3496 0.019516C22.933 0.132677 23.325 0.723377 23.325 1.41366C23.325 1.52909 23.3137 1.64903 23.2912 1.76898L17.6957 30.6296C17.5335 31.4625 16.851 32.0283 16.1707 31.8947C15.5873 31.7816 15.1953 31.1909 15.1953 30.5006C15.1953 30.3852 15.2065 30.2653 15.2291 30.1453Z" fill="url(#paint0_linear_148_3920)"/>
<path d="M17.7979 5.88147C17.674 6.52422 17.1131 6.98817 16.4621 6.98817H10.5715L10.5468 6.99044L2.78423 15.9551L10.5603 24.9355L10.5715 24.9242H12.4547C13.3107 24.9242 13.955 25.7096 13.7905 26.5538C13.6666 27.1965 13.1057 27.6605 12.4547 27.6605H10.5715C9.84165 27.6605 9.13208 27.3708 8.62527 26.8638L0.727596 17.7476C0.259053 17.2587 0 16.625 0 15.9551C0 15.2852 0.256801 14.6515 0.727596 14.1649L8.5577 5.12105L8.62753 5.04637C9.13659 4.54165 9.84616 4.25195 10.5738 4.25195H16.4643C17.3181 4.25195 17.9624 5.03731 17.7979 5.88147Z" fill="url(#paint1_linear_148_3920)"/>
<path d="M29.8937 5.04863L32.4369 7.98402H36.1942C36.6988 7.98402 37.1088 8.39593 37.1088 8.90291V9.9847C37.1088 10.4917 36.6988 10.9036 36.1942 10.9036H34.9643L37.7913 14.1672C38.2599 14.656 38.5189 15.2897 38.5189 15.9573C38.5189 16.6273 38.2621 17.261 37.7913 17.7476L29.9612 26.7891L29.8914 26.8638C29.3824 27.3708 28.6728 27.6605 27.9429 27.6605H22.0546C21.1986 27.6605 20.5543 26.8751 20.7165 26.031C20.8404 25.3882 21.4013 24.9242 22.0546 24.9242L27.9699 24.922L35.7325 15.9573L27.9587 6.9769L27.9452 6.98817H26.062C25.206 6.98817 24.5617 6.20285 24.7262 5.35869C24.8501 4.71592 25.411 4.25195 26.062 4.25195H27.9452C28.675 4.25195 29.3846 4.54392 29.8937 5.04863Z" fill="url(#paint2_linear_148_3920)"/>
<path d="M27.603 13.3001L29.5267 15.5203C29.6416 15.6403 29.7046 15.7942 29.7046 15.9571C29.7046 16.1201 29.6416 16.274 29.5267 16.3939L27.6187 18.596L27.603 18.6141C27.479 18.7364 27.3056 18.8088 27.1277 18.8088H25.8121C25.4967 18.8088 25.2422 18.553 25.2422 18.2362V13.6781C25.2422 13.3612 25.4967 13.1055 25.8121 13.1055H27.1277C27.3056 13.1055 27.479 13.1756 27.603 13.3001Z" fill="url(#paint3_linear_148_3920)"/>
<path d="M11.9139 18.6001L9.57791 17.5545C9.48103 17.5115 9.41797 17.4142 9.41797 17.3078V14.6032C9.41797 14.4969 9.48103 14.3996 9.57791 14.3566L11.9139 13.3109C12.0625 13.2453 12.2292 13.2453 12.3779 13.3109L14.7139 14.3566C14.8107 14.3996 14.8738 14.4969 14.8738 14.6032V17.3078C14.8738 17.4142 14.8107 17.5115 14.7139 17.5545L12.3779 18.6001C12.2292 18.668 12.0603 18.668 11.9139 18.6001Z" fill="url(#paint4_linear_148_3920)"/>
</g>
<defs>
<linearGradient id="paint0_linear_148_3920" x1="-8.64348" y1="32.5788" x2="41.158" y2="3.18978" gradientUnits="userSpaceOnUse">
<stop offset="2.29095e-07" stop-color="#6317F7"/>
<stop offset="1" stop-color="#18FFFF"/>
</linearGradient>
<linearGradient id="paint1_linear_148_3920" x1="-10.7109" y1="29.0781" x2="39.0907" y2="-0.31096" gradientUnits="userSpaceOnUse">
<stop offset="2.29095e-07" stop-color="#6317F7"/>
<stop offset="1" stop-color="#18FFFF"/>
</linearGradient>
<linearGradient id="paint2_linear_148_3920" x1="-6.57967" y1="36.08" x2="43.2219" y2="6.69098" gradientUnits="userSpaceOnUse">
<stop offset="2.29095e-07" stop-color="#6317F7"/>
<stop offset="1" stop-color="#18FFFF"/>
</linearGradient>
<linearGradient id="paint3_linear_148_3920" x1="-6.76411" y1="35.7631" x2="43.0374" y2="6.37411" gradientUnits="userSpaceOnUse">
<stop offset="2.29095e-07" stop-color="#6317F7"/>
<stop offset="1" stop-color="#18FFFF"/>
</linearGradient>
<linearGradient id="paint4_linear_148_3920" x1="-10.4953" y1="29.443" x2="39.3062" y2="0.0539963" gradientUnits="userSpaceOnUse">
<stop offset="2.29095e-07" stop-color="#6317F7"/>
<stop offset="1" stop-color="#18FFFF"/>
</linearGradient>
<clipPath id="clip0_148_3920">
<rect width="98" height="32" fill="white"/>
</clipPath>
</defs>
</svg>