<svg width="40" height="40" viewBox="0 0 40 40" fill="none" xmlns="http://www.w3.org/2000/svg">
<circle cx="20" cy="20" r="20" fill="#CCD5E0"/>
<path d="M12.0004 11.0375L20.4457 4L28.891 11.0375H12.0004Z" fill="#18449D"/>
<path d="M28.891 11.0374L20.4457 18.0753L12.0004 11.0374H28.891Z" fill="#18449D"/>
<path d="M28.8911 25.1128L20.4457 18.0753L28.8911 11.0374V25.1128Z" fill="#0D2A62"/>
<path d="M15.9437 12.0285C16.065 11.6542 16.1864 11.2804 16.3082 10.9054C15.9884 10.6729 15.6692 10.441 15.3507 10.2095C15.3514 10.2078 15.3514 10.2074 15.3517 10.207C15.3521 10.2067 15.3525 10.2063 15.3528 10.2063C15.3539 10.206 15.3549 10.206 15.356 10.206C15.748 10.206 16.14 10.2056 16.5323 10.2056C16.5327 10.2056 16.5334 10.2053 16.5361 10.2042C16.657 9.8321 16.7783 9.45858 16.8994 9.08507C16.9009 9.08507 16.9011 9.08472 16.9019 9.08472C16.9023 9.08472 16.903 9.08472 16.9033 9.08507C16.904 9.08649 16.9047 9.08792 16.9054 9.08933C17.0262 9.46072 17.1469 9.83174 17.268 10.2031C17.268 10.2035 17.2687 10.2038 17.2697 10.2056C17.6631 10.2056 18.0577 10.2056 18.4517 10.2056C18.4524 10.2074 18.4524 10.2078 18.4524 10.2085C18.4524 10.2088 18.4521 10.2095 18.4517 10.2099C18.1336 10.4414 17.8155 10.6725 17.4956 10.9054C17.525 10.9988 17.5559 11.0922 17.5864 11.1856C17.617 11.2793 17.6471 11.373 17.6777 11.4668C17.7082 11.5605 17.7388 11.6542 17.7689 11.748C17.7995 11.8413 17.8296 11.9351 17.8573 12.0306C17.5392 11.7995 17.2214 11.5683 16.9023 11.3368C16.5838 11.5683 16.2657 11.7995 15.9475 12.0306C15.9458 12.0299 15.9447 12.0292 15.9437 12.0285Z" fill="#FFFEFC"/>
<path d="M25.3999 26.4272L21.7683 29.3359L16.7876 33.3256L13.4597 30.5526L14.9573 29.3359L22.0119 23.6035L25.3999 26.4272Z" fill="#EBEBEB"/>
<path d="M28.8903 29.3359L20.4454 36.3738L16.7876 33.3256L21.7683 29.3359L25.3997 26.4272L28.8903 29.3359Z" fill="#9B0101"/>
<path d="M22.0118 23.6035L14.9573 29.3359L13.4596 30.5526L12 29.3359L20.4453 22.298L22.0118 23.6035Z" fill="#9C0001"/>
<path d="M15.3265 18.0328L12 20.619V15.2606L15.3265 18.0328Z" fill="#CF1518"/>
<path d="M18.6317 20.7865L12 26.2338V20.619L15.3265 18.0328L18.6317 20.7865Z" fill="#F5F5F5"/>
<path d="M20.4453 22.298L12 29.3359V26.2337L18.6317 20.7865L20.4453 22.298Z" fill="#CE1417"/>
<path d="M19.0862 9.32092C19.2077 8.94669 19.3291 8.57282 19.4509 8.19789C19.1311 7.96533 18.8118 7.73348 18.4933 7.50198C18.494 7.5002 18.494 7.49986 18.4943 7.4995C18.4947 7.49914 18.495 7.49879 18.4955 7.49879C18.4965 7.49843 18.4976 7.49843 18.4986 7.49843C18.8906 7.49843 19.2826 7.49807 19.675 7.49807C19.6753 7.49807 19.676 7.49772 19.6788 7.49666C19.7995 7.12457 19.921 6.75104 20.0421 6.37752C20.0435 6.37752 20.0438 6.37717 20.0445 6.37717C20.045 6.37717 20.0455 6.37717 20.046 6.37752C20.0467 6.37895 20.0474 6.38037 20.0481 6.38179C20.1688 6.75317 20.2896 7.12421 20.4105 7.49559C20.4105 7.49594 20.4113 7.4963 20.4124 7.49807C20.8058 7.49807 21.2002 7.49807 21.5944 7.49807C21.5951 7.49986 21.5951 7.5002 21.5951 7.50091C21.5951 7.50127 21.5948 7.50198 21.5944 7.50234C21.2762 7.73383 20.958 7.96497 20.6382 8.19789C20.6677 8.29127 20.6986 8.38464 20.7291 8.47802C20.7597 8.57175 20.7898 8.66549 20.8204 8.75922C20.8509 8.85295 20.8814 8.94669 20.9116 9.04042C20.9422 9.13381 20.9723 9.22755 21 9.32305C20.6819 9.09192 20.3641 8.86077 20.045 8.62927C19.7264 8.86077 19.4082 9.09192 19.0902 9.32305C19.0884 9.32198 19.0874 9.32164 19.0862 9.32092Z" fill="#FFFEFC"/>
<path d="M19.0862 14.7819C19.2077 14.4077 19.3291 14.0338 19.4509 13.6589C19.1311 13.4263 18.8118 13.1945 18.4933 12.963C18.494 12.9612 18.494 12.9608 18.4943 12.9605C18.4947 12.9601 18.495 12.9598 18.4955 12.9598C18.4965 12.9594 18.4976 12.9594 18.4986 12.9594C18.8906 12.9594 19.2826 12.9591 19.675 12.9591C19.6753 12.9591 19.676 12.9587 19.6788 12.9576C19.7995 12.5855 19.921 12.212 20.0421 11.8385C20.0435 11.8385 20.0438 11.8382 20.0445 11.8382C20.045 11.8382 20.0455 11.8382 20.046 11.8385C20.0467 11.8399 20.0474 11.8414 20.0481 11.8428C20.1688 12.2142 20.2896 12.5852 20.4105 12.9566C20.4105 12.9569 20.4113 12.9573 20.4124 12.9591C20.8058 12.9591 21.2002 12.9591 21.5944 12.9591C21.5951 12.9608 21.5951 12.9612 21.5951 12.9619C21.5951 12.9623 21.5948 12.963 21.5944 12.9633C21.2762 13.1948 20.958 13.426 20.6382 13.6589C20.6677 13.7523 20.6986 13.8456 20.7291 13.939C20.7597 14.0328 20.7898 14.1265 20.8204 14.2202C20.8509 14.314 20.8814 14.4077 20.9116 14.5014C20.9422 14.5948 20.9723 14.6885 21 14.784C20.6819 14.5529 20.3641 14.3218 20.045 14.0903C19.7264 14.3218 19.4082 14.5529 19.0902 14.784C19.0884 14.783 19.0874 14.7823 19.0862 14.7819Z" fill="#FFFEFC"/>
<path d="M22.2067 12.0285C22.3283 11.6542 22.4496 11.2804 22.5714 10.9054C22.2516 10.6729 21.9323 10.441 21.6138 10.2095C21.6145 10.2078 21.6145 10.2074 21.615 10.207C21.6153 10.2067 21.6155 10.2063 21.616 10.2063C21.617 10.206 21.6181 10.206 21.6191 10.206C22.0111 10.206 22.4031 10.2056 22.7955 10.2056C22.7958 10.2056 22.7965 10.2053 22.7994 10.2042C22.92 9.8321 23.0415 9.45858 23.1626 9.08507C23.1641 9.08507 23.1643 9.08472 23.1651 9.08472C23.1655 9.08472 23.1662 9.08472 23.1665 9.08507C23.1672 9.08649 23.1679 9.08792 23.1686 9.08933C23.2893 9.46072 23.4101 9.83174 23.5311 10.2031C23.5311 10.2035 23.5318 10.2038 23.5329 10.2056C23.9263 10.2056 24.3207 10.2056 24.7149 10.2056C24.7156 10.2074 24.7156 10.2078 24.7156 10.2085C24.7156 10.2088 24.7153 10.2095 24.7149 10.2099C24.3967 10.4414 24.0786 10.6725 23.7587 10.9054C23.7882 10.9988 23.8191 11.0922 23.8496 11.1856C23.8802 11.2793 23.9103 11.373 23.9409 11.4668C23.9715 11.5605 24.0019 11.6542 24.0321 11.748C24.0627 11.8413 24.0928 11.9351 24.1205 12.0306C23.8024 11.7995 23.4846 11.5683 23.1655 11.3368C22.8469 11.5683 22.5287 11.7995 22.2107 12.0306C22.2089 12.0299 22.2079 12.0292 22.2067 12.0285Z" fill="#FFFEFC"/>
<path d="M22.2067 17.3759C22.3283 17.0016 22.4496 16.6278 22.5714 16.2529C22.2516 16.0203 21.9323 15.7884 21.6138 15.5569C21.6145 15.5552 21.6145 15.5548 21.615 15.5545C21.6153 15.5541 21.6155 15.5537 21.616 15.5537C21.617 15.5534 21.6181 15.5534 21.6191 15.5534C22.0111 15.5534 22.4031 15.553 22.7955 15.553C22.7958 15.553 22.7965 15.5527 22.7994 15.5516C22.92 15.1795 23.0415 14.806 23.1626 14.4325C23.1641 14.4325 23.1643 14.4321 23.1651 14.4321C23.1655 14.4321 23.1662 14.4321 23.1665 14.4325C23.1672 14.4339 23.1679 14.4353 23.1686 14.4368C23.2893 14.8081 23.4101 15.1792 23.5311 15.5505C23.5311 15.5509 23.5318 15.5513 23.5329 15.553C23.9263 15.553 24.3207 15.553 24.7149 15.553C24.7156 15.5548 24.7156 15.5552 24.7156 15.5559C24.7156 15.5562 24.7153 15.5569 24.7149 15.5573C24.3967 15.7888 24.0786 16.02 23.7587 16.2529C23.7882 16.3462 23.8191 16.4395 23.8496 16.5329C23.8802 16.6268 23.9103 16.7204 23.9409 16.8143C23.9715 16.9079 24.0019 17.0016 24.0321 17.0954C24.0627 17.1888 24.0928 17.2825 24.1205 17.378C23.8024 17.1468 23.4846 16.9158 23.1655 16.6843C22.8469 16.9158 22.5287 17.1468 22.2107 17.378C22.2089 17.3769 22.2079 17.3766 22.2067 17.3759Z" fill="#FFFEFC"/>
<path d="M25.4283 14.6945C25.5496 14.3203 25.671 13.9464 25.7928 13.5715C25.4729 13.3389 25.1538 13.1071 24.8352 12.8756C24.8359 12.8738 24.8359 12.8735 24.8363 12.8731C24.8366 12.8727 24.8371 12.8724 24.8373 12.8724C24.8385 12.872 24.8395 12.872 24.8406 12.872C25.2326 12.872 25.6246 12.8717 26.0169 12.8717C26.0173 12.8717 26.0179 12.8713 26.0207 12.8703C26.1415 12.4982 26.2629 12.1246 26.384 11.7511C26.3854 11.7511 26.3857 11.7508 26.3864 11.7508C26.3869 11.7508 26.3876 11.7508 26.3879 11.7511C26.3886 11.7525 26.3893 11.754 26.39 11.7554C26.5108 12.1268 26.6315 12.4978 26.7526 12.8692C26.7526 12.8695 26.7533 12.8699 26.7543 12.8717C27.1477 12.8717 27.5423 12.8717 27.9362 12.8717C27.937 12.8735 27.937 12.8738 27.937 12.8745C27.937 12.8749 27.9367 12.8756 27.9362 12.8759C27.6182 13.1074 27.3001 13.3386 26.9802 13.5715C27.0096 13.6649 27.0405 13.7582 27.071 13.8516C27.1016 13.9453 27.1317 14.0391 27.1623 14.1328C27.1928 14.2266 27.2234 14.3203 27.2535 14.414C27.2841 14.5074 27.3142 14.6011 27.3419 14.6966C27.0237 14.4655 26.706 14.2344 26.3869 14.0029C26.0684 14.2344 25.7503 14.4655 25.4321 14.6966C25.43 14.6959 25.4293 14.6952 25.4283 14.6945Z" fill="#FFFEFC"/>
<path d="M25.3079 20.0917C25.4293 19.7174 25.5508 19.3435 25.6725 18.9687C25.3526 18.7361 25.0335 18.5041 24.715 18.2727C24.7157 18.271 24.7157 18.2705 24.716 18.2702C24.7165 18.2698 24.7167 18.2695 24.7172 18.2695C24.7182 18.2691 24.7192 18.2691 24.7203 18.2691C25.1123 18.2691 25.5043 18.2688 25.8966 18.2688C25.897 18.2688 25.8977 18.2685 25.9005 18.2674C26.0212 17.8953 26.1426 17.5218 26.2637 17.1483C26.2651 17.1483 26.2655 17.148 26.2663 17.148C26.2665 17.148 26.2673 17.148 26.2677 17.1483C26.2684 17.1497 26.269 17.1511 26.2697 17.1526C26.3905 17.524 26.5112 17.895 26.6323 18.2664C26.6323 18.2667 26.633 18.2671 26.634 18.2688C27.0274 18.2688 27.4219 18.2688 27.8161 18.2688C27.8168 18.2705 27.8168 18.271 27.8168 18.2717C27.8168 18.272 27.8163 18.2727 27.8161 18.2731C27.4979 18.5046 27.1797 18.7358 26.8599 18.9687C26.8893 19.0621 26.9201 19.1553 26.9507 19.2487C26.9813 19.3425 27.0114 19.4362 27.0419 19.53C27.0725 19.6237 27.1031 19.7174 27.1332 19.8112C27.1638 19.9046 27.1939 19.9983 27.2216 20.0938C26.9036 19.8626 26.5857 19.6316 26.2665 19.4001C25.9481 19.6316 25.6299 19.8626 25.3118 20.0938C25.3101 20.0928 25.3089 20.0921 25.3079 20.0917Z" fill="#FFFEFC"/>
</svg>
