<svg width="144" height="47" viewBox="0 0 144 47" fill="none" xmlns="http://www.w3.org/2000/svg">
<g clip-path="url(#clip0_1590_143619)">
<path d="M78.8572 18.9043C76.312 18.9043 74.3852 16.8567 74.3852 14.1608C74.3852 11.5115 76.312 9.48708 78.8572 9.48708C80.277 9.48708 81.8358 10.2916 82.892 11.5813L85.2522 8.77247C83.6466 7.1137 81.1705 6.05664 78.7873 6.05664C73.9057 6.05664 70.2148 9.55693 70.2148 14.2073C70.2148 18.9276 73.8128 22.4944 78.6519 22.4944C81.015 22.4944 83.5573 21.321 85.2788 19.5459L82.8956 17.0129C81.7703 18.1664 80.2108 18.9043 78.8572 18.9043Z" fill="white"/>
<path d="M92.8133 22.4479C96.8481 22.4479 99.5561 19.9149 99.5561 16.0922C99.5561 12.2695 96.8517 9.75977 92.8133 9.75977C88.7553 9.75977 86.051 12.2695 86.051 16.0922C86.051 19.9183 88.7553 22.4479 92.8133 22.4479ZM92.8133 12.9177C94.4419 12.9177 95.5644 14.2307 95.5644 16.1421C95.5644 18.0767 94.4419 19.3664 92.8133 19.3664C91.1616 19.3664 90.0398 18.0767 90.0398 16.1421C90.0398 14.2307 91.1652 12.9177 92.8133 12.9177Z" fill="white"/>
<path d="M106.667 22.4688C108.25 22.4688 109.51 21.8238 110.382 20.6737V22.3092H114.347V5.22656H110.382V11.5358C109.51 10.3856 108.204 9.74072 106.575 9.74072C103.159 9.74072 100.888 12.2504 100.888 16.0499C100.891 19.8925 103.182 22.4688 106.667 22.4688ZM107.631 12.9152C109.282 12.9152 110.382 14.2283 110.382 16.1396C110.382 18.051 109.282 19.3873 107.631 19.3873C105.979 19.3873 104.88 18.051 104.857 16.1396C104.88 14.2283 105.979 12.9152 107.631 12.9152Z" fill="white"/>
<path d="M123.129 22.4465C125.4 22.4465 127.256 21.6388 128.517 20.2593L126.432 18.2116C125.608 19.0393 124.552 19.4781 123.476 19.4781C122.01 19.4781 120.954 18.6504 120.563 17.1745H129.252C129.527 12.6404 127.372 9.76172 123.016 9.76172C119.187 9.76172 116.575 12.2947 116.575 16.1407C116.572 19.9169 119.094 22.4465 123.129 22.4465ZM123.06 12.5241C124.479 12.5241 125.443 13.5146 125.443 15.0337H120.491C120.743 13.5379 121.682 12.5241 123.06 12.5241Z" fill="white"/>
<path d="M140.039 5.22656V11.5358C139.169 10.3856 137.861 9.74073 136.232 9.74073C132.817 9.74073 130.546 12.2504 130.546 16.0499C130.546 19.8958 132.84 22.4721 136.322 22.4721C137.904 22.4721 139.166 21.8272 140.036 20.677V22.3125H144.001V5.2299H140.039V5.22656ZM137.289 19.384C135.637 19.384 134.538 18.0476 134.515 16.1363C134.538 14.225 135.637 12.9119 137.289 12.9119C138.94 12.9119 140.039 14.225 140.039 16.1363C140.039 18.0476 138.94 19.384 137.289 19.384Z" fill="white"/>
<path d="M74.3561 34.2763H82.4489V32.5046H74.3561V27.2093H83.4122V25.4375H72.5222V41.5528H83.7103V39.801H74.3561V34.2763Z" fill="white"/>
<path d="M88.0559 32.5048C88.0559 31.3779 89.0884 30.8926 90.4391 30.8926C91.5609 30.8926 92.7755 31.2849 93.7158 31.8832L94.4042 30.4571C93.3947 29.7657 91.9979 29.3535 90.5514 29.3535C88.3504 29.3535 86.3574 30.3208 86.3574 32.6444C86.3344 36.9491 93.0966 35.4532 93.0275 38.3785C93.0037 39.5751 91.859 40.107 90.4355 40.107C89.0157 40.107 87.4562 39.532 86.4237 38.5646L85.7354 39.9242C86.8809 41.0278 88.6478 41.6262 90.3657 41.6262C92.6798 41.6262 94.7915 40.5691 94.7915 38.1724C94.7944 33.8178 88.0559 35.1974 88.0559 32.5048Z" fill="white"/>
<path d="M101.617 39.8939C100.584 39.8939 100.012 39.3421 100.012 37.8662V31.2578H103.841V29.7853L100.012 29.8086V26.6074H98.2477V29.8086H96.5032V31.2611H98.2477V38.1919C98.2477 40.5853 99.5553 41.6457 101.319 41.6457C102.283 41.6224 103.199 41.3 104.047 40.7249L103.543 39.2723C102.878 39.6878 102.236 39.8939 101.617 39.8939Z" fill="white"/>
<path d="M111.283 29.3516C109.221 29.3516 107.914 29.9499 106.354 30.987L107.112 32.3001C108.374 31.4258 109.612 30.9172 110.939 30.9172C113.07 30.9172 114.173 31.9743 114.173 33.7494V34.4641H110.207C107.364 34.4873 105.693 35.8203 105.693 37.9411C105.693 40.0352 107.298 41.6475 109.797 41.6475C111.723 41.6475 113.259 41.0026 114.222 39.6895V41.5544H115.967L115.943 33.5432C115.917 30.9405 114.266 29.3516 111.283 29.3516ZM114.196 37.3627C113.736 39.0447 112.177 40.0785 110.138 40.0785C108.44 40.0785 107.364 39.2042 107.364 37.868C107.364 36.5316 108.42 35.91 110.436 35.91H114.196V37.3627Z" fill="white"/>
<path d="M123.331 39.8939C122.298 39.8939 121.725 39.3421 121.725 37.8662V31.2578H125.555V29.7853L121.725 29.8086V26.6074H119.961V29.8086H118.217V31.2611H119.961V38.1919C119.961 40.5853 121.269 41.6457 123.033 41.6457C123.996 41.6224 124.913 41.3 125.76 40.7249L125.257 39.2723C124.592 39.6878 123.949 39.8939 123.331 39.8939Z" fill="white"/>
<path d="M132.862 29.3732C129.354 29.3732 126.878 31.8829 126.878 35.4995C126.878 39.1128 129.331 41.6226 132.886 41.6226C134.905 41.6226 136.6 40.8879 137.748 39.5982L136.762 38.5411C135.821 39.5317 134.514 40.0602 133.025 40.0602C130.688 40.0602 128.967 38.5644 128.646 36.1909H138.506C138.688 32.0657 136.762 29.3499 132.862 29.3732ZM128.646 34.7151C128.92 32.4114 130.572 30.9156 132.866 30.9156C135.229 30.9156 136.785 32.3881 136.901 34.7151H128.646Z" fill="white"/>
<path d="M22.3775 44.2759L30.5995 1.88684C30.8378 0.663568 31.8407 -0.167459 32.8403 0.0286641C33.6975 0.194869 34.2735 1.06246 34.2735 2.07632C34.2735 2.24585 34.257 2.42202 34.2239 2.5982L26.0019 44.9872C25.7636 46.2105 24.7607 47.0416 23.761 46.8454C22.9038 46.6792 22.3279 45.8116 22.3279 44.7978C22.3279 44.6282 22.3444 44.4521 22.3775 44.2759Z" fill="url(#paint0_linear_1590_143619)"/>
<path d="M26.1521 8.63749C25.97 9.58154 25.1458 10.263 24.1892 10.263H15.5336L15.4973 10.2663L4.09111 23.4331L15.5172 36.6232L15.5336 36.6065H18.3008C19.5586 36.6065 20.5052 37.7601 20.2636 38.9999C20.0816 39.944 19.2574 40.6254 18.3008 40.6254H15.5336C14.4612 40.6254 13.4186 40.1999 12.6739 39.4553L1.06912 26.0658C0.38065 25.3478 0 24.4171 0 23.4331C0 22.4492 0.37734 21.5185 1.06912 20.8038L12.5746 7.52062L12.6772 7.41093C13.4252 6.66964 14.4678 6.24414 15.537 6.24414H24.1925C25.447 6.24414 26.3937 7.39763 26.1521 8.63749Z" fill="url(#paint1_linear_1590_143619)"/>
<path d="M43.9255 7.41426L47.6625 11.7256H53.1835C53.9249 11.7256 54.5274 12.3306 54.5274 13.0752V14.6641C54.5274 15.4087 53.9249 16.0137 53.1835 16.0137H51.3763L55.5302 20.8071C56.2187 21.5251 56.5994 22.4559 56.5994 23.4364C56.5994 24.4204 56.222 25.3511 55.5302 26.0658L44.0248 39.3456L43.9222 39.4553C43.1742 40.1999 42.1316 40.6254 41.0591 40.6254H32.4069C31.149 40.6254 30.2024 39.472 30.4407 38.2321C30.6228 37.288 31.447 36.6065 32.4069 36.6065L41.0988 36.6032L52.505 23.4364L41.0823 10.2464L41.0624 10.263H38.2952C37.0375 10.263 36.0908 9.10951 36.3325 7.86965C36.5145 6.92559 37.3387 6.24414 38.2952 6.24414H41.0624C42.1349 6.24414 43.1775 6.67296 43.9255 7.41426Z" fill="url(#paint2_linear_1590_143619)"/>
<path d="M40.5595 19.534L43.3862 22.7949C43.555 22.971 43.6476 23.1971 43.6476 23.4364C43.6476 23.6757 43.555 23.9018 43.3862 24.078L40.5826 27.3123L40.5595 27.3389C40.3774 27.5185 40.1226 27.6248 39.8611 27.6248H37.928C37.4646 27.6248 37.0906 27.2492 37.0906 26.7838V20.0891C37.0906 19.6237 37.4646 19.248 37.928 19.248H39.8611C40.1226 19.248 40.3774 19.3511 40.5595 19.534Z" fill="url(#paint3_linear_1590_143619)"/>
<path d="M17.5061 27.3193L14.0736 25.7835C13.9313 25.7204 13.8386 25.5774 13.8386 25.4212V21.4489C13.8386 21.2926 13.9313 21.1497 14.0736 21.0865L17.5061 19.5508C17.7245 19.4544 17.9695 19.4544 18.1879 19.5508L21.6204 21.0865C21.7627 21.1497 21.8554 21.2926 21.8554 21.4489V25.4212C21.8554 25.5774 21.7627 25.7204 21.6204 25.7835L18.1879 27.3193C17.9695 27.419 17.7212 27.419 17.5061 27.3193Z" fill="url(#paint4_linear_1590_143619)"/>
</g>
<defs>
<linearGradient id="paint0_linear_1590_143619" x1="-12.7005" y1="47.85" x2="60.4608" y2="4.65719" gradientUnits="userSpaceOnUse">
<stop offset="2.29095e-07" stop-color="#6317F7"/>
<stop offset="1" stop-color="#18FFFF"/>
</linearGradient>
<linearGradient id="paint1_linear_1590_143619" x1="-15.7385" y1="42.7075" x2="57.4229" y2="-0.485438" gradientUnits="userSpaceOnUse">
<stop offset="2.29095e-07" stop-color="#6317F7"/>
<stop offset="1" stop-color="#18FFFF"/>
</linearGradient>
<linearGradient id="paint2_linear_1590_143619" x1="-9.66798" y1="52.9915" x2="63.4934" y2="9.79866" gradientUnits="userSpaceOnUse">
<stop offset="2.29095e-07" stop-color="#6317F7"/>
<stop offset="1" stop-color="#18FFFF"/>
</linearGradient>
<linearGradient id="paint3_linear_1590_143619" x1="-9.93908" y1="52.5264" x2="63.2223" y2="9.33356" gradientUnits="userSpaceOnUse">
<stop offset="2.29095e-07" stop-color="#6317F7"/>
<stop offset="1" stop-color="#18FFFF"/>
</linearGradient>
<linearGradient id="paint4_linear_1590_143619" x1="-15.4218" y1="43.2448" x2="57.7396" y2="0.0518627" gradientUnits="userSpaceOnUse">
<stop offset="2.29095e-07" stop-color="#6317F7"/>
<stop offset="1" stop-color="#18FFFF"/>
</linearGradient>
<clipPath id="clip0_1590_143619">
<rect width="144" height="47" fill="white"/>
</clipPath>
</defs>
</svg>
